# xmcd
#
# Track frame offsets:
#       150
#       17393
#       45916
#       69148
#       82715
#       100766
#       122559
#       147166
#       174744
#       196252
#       223294
#       240858
#       268732
#       288965
#
# Disc length: 4132 seconds
#
# Revision: 0
# Processed by: cddbd v1.5.2PL0 Copyright (c) Steve Scherf et al.
# Submitted via: EZCDAudioConverter 1.1.0.1
#
DISCID=b010220e
DTITLE=Linkin Park / Recharged
DYEAR=
DGENRE=Rock
TTITLE0=Linkin Park x Steve Aoki / A Light That Never Comes
TTITLE1=Linkin Park / Castle Of Glass (M. Shinoda Remix)
TTITLE2=Linkin Park / Lost In The Echo (Killsonik Remix)
TTITLE3=Linkin Park / Victimized (M. Shinoda Remix)
TTITLE4=Linkin Park feat Pusha T / I'll Be Gone (Vice Remix)
TTITLE5=Linkin Park / Lies Greed Misery (Dirtyphonics Remix)
TTITLE6=Linkin Park feat Bun B / Roads Untraveled (Rad Omen Remix)
TTITLE7=Linkin Park / Powerless (Enferno Remix)
TTITLE8=Linkin Park / Burn It Down (Tom Swoon Remix)
TTITLE9=Linkin Park / Until It Breaks (Datsik Remix)
TTITLE10=Linkin Park feat Cody B Ware And Ryu / Skin To Bone (Nick Catchdubs R
TTITLE10=emix)
TTITLE11=Linkin Park / I'll Be Gone (Schoolboy Remix)
TTITLE12=Linkin Park / Until It Breaks (Money Mark Headphone Remix)
TTITLE13=Linkin Park / A Light That Never Comes (Rick Rubin Reboot)
EXTD=
EXTT0=
EXTT1=
EXTT2=
EXTT3=
EXTT4=
EXTT5=
EXTT6=
EXTT7=
EXTT8=
EXTT9=
EXTT10=
EXTT11=
EXTT12=
EXTT13=
PLAYORDER=
.
